# xmcd
# 
# Track frame offsets:
#     150
#     40613
#     76682
#     94361
#     119515
#     157450
# 
# Disc length: 2609
# 
# Revision: 8
# Processed by: cddbd v1.5.2PL0 Copyright (c) Steve Scherf et al.
# Submitted via: fre:ac v1.0.31
# 
DISCID=470a2f06
DTITLE=Keith Jarrett - Testament Disc 3
DYEAR=2009
DGENRE=Jazz
TTITLE0=Part VII: Royal Festival Hall, London [2008.12.01]
TTITLE1=Part VIII: Royal Festival Hall, London [2008.12.01]
TTITLE2=Part IX: Royal Festival Hall, London [2008.12.01]
TTITLE3=Part X: Royal Festival Hall, London [2008.12.01]
TTITLE4=Part XI: Royal Festival Hall, London [2008.12.01]
TTITLE5=Part XII: Royal Festival Hall, London [2008.12.01]
EXTD=YEAR: 2009
EXTT0=
EXTT1=
EXTT2=
EXTT3=
EXTT4=
EXTT5=
PLAYORDER=
